# xmcd CD database file
#
# Track frame offsets:
#	150
#	37283
#	69045
#	91231
#	121035
#	147042
#	169311
#	196348
#	224723
#	253189
#
# Disc length: 3801 seconds
#
# Revision: 1
# Processed by: cddbd v1.5.2PL0 Copyright (c) Steve Scherf et al.
# Submitted via: CDex 1.70beta2
#
DISCID=920ed70a
DTITLE=Wayne Bergeron - Plays Well With Others
DYEAR=2007
DGENRE=Jazz
TTITLE0=Endless Torture (Tortura Sin Fin)
TTITLE1=Maynard and Waynard
TTITLE2=Scheherazade
TTITLE3=You Go to My Head
TTITLE4=Georgia
TTITLE5=Samba Brassiliero
TTITLE6=High Clouds and a Good Chance of Wayne
TTITLE7=Requiems
TTITLE8=You Hid What in the Sousaphone?
TTITLE9=The Hipster
EXTD=YEAR: 2007
EXTT0=
EXTT1=
EXTT2=
EXTT3=
EXTT4=
EXTT5=
EXTT6=
EXTT7=
EXTT8=
EXTT9=
PLAYORDER=
